<?xml version="1.0" encoding="UTF-8"?>
<svg xmlns="http://www.w3.org/2000/svg" style="display: none;">
    <!-- Player Controls -->
    <symbol id="icon-play" viewBox="0 0 24 24">
        <path d="M8 5v14l11-7z"/>
    </symbol>
    <symbol id="icon-pause" viewBox="0 0 24 24">
        <path d="M6 19h4V5H6v14zm8-14v14h4V5h-4z"/>
    </symbol>
    <symbol id="icon-stop" viewBox="0 0 24 24">
        <path d="M6 6h12v12H6z"/>
    </symbol>
    <symbol id="icon-prev" viewBox="0 0 24 24">
        <path d="M6 6h2v12H6zm3.5 6l8.5 6V6z"/>
    </symbol>
    <symbol id="icon-next" viewBox="0 0 24 24">
        <path d="M6 18l8.5-6L6 6v12zM16 6v12h2V6h-2z"/>
    </symbol>
    <symbol id="icon-volume" viewBox="0 0 24 24">
        <path d="M3 9v6h4l5 5V4L7 9H3zm13.5 3c0-1.77-1.02-3.29-2.5-4.03v8.05c1.48-.73 2.5-2.25 2.5-4.02zM14 3.23v2.06c2.89.86 5 3.54 5 6.71s-2.11 5.85-5 6.71v2.06c4.01-.91 7-4.49 7-8.77s-2.99-7.86-7-8.77z"/>
    </symbol>
    
    <!-- Social Icons -->
    <symbol id="icon-share" viewBox="0 0 24 24">
        <path d="M18 16.08c-.76 0-1.44.3-1.96.77L8.91 12.7c.05-.23.09-.46.09-.7s-.04-.47-.09-.7l7.05-4.11c.54.5 1.25.81 2.04.81 1.66 0 3-1.34 3-3s-1.34-3-3-3-3 1.34-3 3c0 .24.04.47.09.7L8.04 9.81C7.5 9.31 6.79 9 6 9c-1.66 0-3 1.34-3 3s1.34 3 3 3c.79 0 1.5-.31 2.04-.81l7.12 4.16c-.05.21-.08.43-.08.65 0 1.61 1.31 2.92 2.92 2.92 1.61 0 2.92-1.31 2.92-2.92s-1.31-2.92-2.92-2.92z"/>
    </symbol>
    <symbol id="icon-chat" viewBox="0 0 24 24">
        <path d="M20 2H4c-1.1 0-2 .9-2 2v18l4-4h14c1.1 0 2-.9 2-2V4c0-1.1-.9-2-2-2z"/>
    </symbol>
    <symbol id="icon-like" viewBox="0 0 24 24">
        <path d="M12 21.35l-1.45-1.32C5.4 15.36 2 12.28 2 8.5 2 5.42 4.42 3 7.5 3c1.74 0 3.41.81 4.5 2.09C13.09 3.81 14.76 3 16.5 3 19.58 3 22 5.42 22 8.5c0 3.78-3.4 6.86-8.55 11.54L12 21.35z"/>
    </symbol>
    
    <!-- Action Icons -->
    <symbol id="icon-download" viewBox="0 0 24 24">
        <path d="M19 9h-4V3H9v6H5l7 7 7-7zM5 18v2h14v-2H5z"/>
    </symbol>
    <symbol id="icon-delete" viewBox="0 0 24 24">
        <path d="M6 19c0 1.1.9 2 2 2h8c1.1 0 2-.9 2-2V7H6v12zM19 4h-3.5l-1-1h-5l-1 1H5v2h14V4z"/>
    </symbol>
    <symbol id="icon-add" viewBox="0 0 24 24">
        <path d="M19 13h-6v6h-2v-6H5v-2h6V5h2v6h6v2z"/>
    </symbol>
</svg>
